<?xml version="1.0" encoding="UTF-8"?>
<!DOCTYPE svg PUBLIC "-//W3C//DTD SVG 1.1//EN" "http://www.w3.org/Graphics/SVG/1.1/DTD/svg11.dtd">
<!-- Creator: CorelDRAW 2018 (64 Bit) -->
<svg xmlns="http://www.w3.org/2000/svg" xml:space="preserve" width="297mm" height="210mm" version="1.1" style="shape-rendering:geometricPrecision; text-rendering:geometricPrecision; image-rendering:optimizeQuality; fill-rule:evenodd; clip-rule:evenodd"
viewBox="0 0 29700 21000"
 xmlns:xlink="http://www.w3.org/1999/xlink">
 <defs>
  <style type="text/css">
   <![CDATA[
    .str2 {stroke:#201E1E;stroke-width:483.16;stroke-miterlimit:22.9256}
    .str0 {stroke:#201E1E;stroke-width:483.16;stroke-miterlimit:22.9256}
    .str1 {stroke:#201E1E;stroke-width:483.16;stroke-miterlimit:22.9256}
    .fil0 {fill:none}
    .fil2 {fill:#FFF212}
    .fil1 {fill:#201E1E;fill-rule:nonzero}
   ]]>
  </style>
 </defs>
 <g id="Camada_x0020_1">
  <metadata id="CorelCorpID_0Corel-Layer"/>
  <rect class="fil0" width="29700" height="21000"/>
  <path class="fil1" d="M6082.29 13536.66l0 4109.11 -1136.56 0 0 -4109.11 -1442.56 0 0 -983.57 4021.68 0 0 983.57 -1442.56 0zm4363.86 3540.83c-442,417.71 -960.49,626.57 -1555.49,626.57 -594.99,0 -1086.78,-183.36 -1475.35,-550.07 -388.56,-366.71 -582.85,-858.5 -582.85,-1475.35 0,-616.85 197.93,-1107.42 593.78,-1471.7 395.86,-364.28 863.35,-546.43 1402.49,-546.43 539.14,0 996.92,162.72 1373.35,488.14 376.43,325.43 564.64,772.28 564.64,1340.56l0 582.86 -2855.98 0c34,213.71 145.71,388.57 335.14,524.57 189.43,135.99 403.14,203.99 641.14,203.99 383.71,0 699.42,-128.71 947.13,-386.14l612 663zm-786.85 -1784.99c-24.29,-233.14 -111.72,-412.85 -262.29,-539.14 -150.57,-126.28 -333.92,-189.42 -550.06,-189.42 -216.14,0 -414.07,65.57 -593.78,196.71 -179.72,131.14 -284.15,308.43 -313.29,531.85l1719.42 0zm7087.84 2353.27l-1136.56 0 0 -2010.84 -1763.13 -3081.84 1231.27 0 1100.14 1894.28 1100.13 -1894.28 1231.28 0 -1763.13 3081.84 0 2010.84zm2076.17 -1959.84c0,320.57 91.07,581.64 273.21,783.21 182.14,201.57 415.29,302.35 699.43,302.35 284.14,0 517.28,-100.78 699.42,-302.35 182.14,-201.57 273.21,-462.64 273.21,-783.21 0,-320.57 -91.07,-582.86 -273.21,-786.85 -182.14,-204 -415.28,-306 -699.42,-306 -284.14,0 -517.29,102 -699.43,306 -182.14,203.99 -273.21,466.28 -273.21,786.85zm3045.41 0c0,568.28 -196.72,1046.7 -590.14,1435.27 -393.43,388.57 -887.64,582.86 -1482.63,582.86 -595,0 -1089.21,-194.29 -1482.64,-582.86 -393.42,-388.57 -590.13,-866.99 -590.13,-1435.27 0,-568.28 196.71,-1047.92 590.13,-1438.92 393.43,-391 887.64,-586.5 1482.64,-586.5 594.99,0 1089.2,195.5 1482.63,586.5 393.42,391 590.14,870.64 590.14,1438.92zm2943.15 153l0 -2112.84 1100.13 0 0 3919.68 -1100.13 0 0 -517.28c-272,383.71 -622.93,575.57 -1052.78,575.57 -429.86,0 -790.5,-134.79 -1081.92,-404.36 -291.43,-269.57 -437.14,-669.07 -437.14,-1198.49l0 -2375.12 1100.13 0 0 2134.69c0,602.28 221,903.43 663,903.43 218.57,0 407.99,-78.93 568.28,-236.79 160.28,-157.85 240.43,-387.35 240.43,-688.49zm-12678.84 1806.84l-912.69 0 0 -4514.79 912.69 0 0 4514.79zm1569.63 0l-912.69 0 0 -4514.79 912.69 0 0 4514.79z"/>
  <path class="fil2 str0" d="M17138.14 3295.93c1967.73,0 3562.94,1249.72 3562.94,2791.33 0,1420.66 -1354.88,2593.53 -3107.48,2768.76l-2666.1 1679.62 457.95 -2017.82c-1080.75,-479.39 -1810.25,-1388.16 -1810.25,-2430.56 0,-1541.61 1595.21,-2791.33 3562.94,-2791.33z"/>
  <path class="fil2 str1" d="M22633.88 3437.2c1967.72,0 3562.94,1249.72 3562.94,2791.32 0,1420.66 -1354.88,2593.53 -3107.49,2768.76l-2666.09 1679.62 457.94 -2017.82c-1080.74,-479.39 -1810.24,-1388.16 -1810.24,-2430.56 0,-1541.6 1595.21,-2791.32 3562.94,-2791.32z"/>
  <path class="fil2 str2" d="M19458.08 3748.19c1967.73,0 3562.94,1249.72 3562.94,2791.32 0,1420.67 -1354.87,2593.53 -3107.48,2768.77l-2666.1 1679.61 457.95 -2017.82c-1080.75,-479.38 -1810.25,-1388.15 -1810.25,-2430.56 0,-1541.6 1595.21,-2791.32 3562.94,-2791.32z"/>
 </g>
</svg>
